<svg width="56" height="965" viewBox="0 0 56 965" fill="none" xmlns="http://www.w3.org/2000/svg">
<path d="M56 940V0H0V940C0 940 21.5364 964.5 29.0182 964.5C36.5 964.5 56 940 56 940Z" fill="url(#paint0_linear_64_1019)"/>
<path d="M11.5449 191.94L8.79834 193.493L8.40283 192.313L11.5449 190.629H12.8999V201H11.5449V191.94ZM16.005 200.399C15.6534 200.146 15.3726 199.828 15.1627 199.447C14.9576 199.062 14.8551 198.668 14.8551 198.268C14.8551 197.863 14.9039 197.531 15.0015 197.272C15.1041 197.008 15.2384 196.767 15.4044 196.547C15.7559 196.093 16.1929 195.775 16.7154 195.595V195.551C16.2857 195.429 15.922 195.165 15.6241 194.76C15.3116 194.34 15.1554 193.888 15.1554 193.405C15.1554 192.917 15.2603 192.497 15.4703 192.145C15.6803 191.789 15.9561 191.488 16.2979 191.244C17.0059 190.736 17.8555 190.482 18.8468 190.482C19.8526 190.482 20.6876 190.717 21.3516 191.186C22.0596 191.693 22.4137 192.372 22.4137 193.222C22.4137 194.003 22.0938 194.638 21.4542 195.126C21.2393 195.287 20.9903 195.417 20.7071 195.514V195.551C21.6837 195.824 22.3184 196.364 22.6114 197.169C22.7042 197.433 22.7506 197.726 22.7506 198.048C22.7506 198.366 22.6969 198.666 22.5894 198.949C22.482 199.232 22.3331 199.491 22.1427 199.726C21.9571 199.955 21.7349 200.158 21.4762 200.333C21.2222 200.509 20.9464 200.658 20.6485 200.78C20.0528 201.024 19.4522 201.146 18.8468 201.146C18.2413 201.146 17.7042 201.085 17.2354 200.963C16.7716 200.836 16.3614 200.648 16.005 200.399ZM17.2135 194.657C17.4137 194.804 17.6529 194.911 17.9312 194.979C18.2096 195.048 18.4928 195.082 18.7808 195.082C19.0738 195.082 19.3472 195.041 19.6012 194.958C19.8551 194.87 20.0846 194.748 20.2896 194.591C20.7486 194.24 20.9781 193.812 20.9781 193.31C20.9781 192.792 20.7559 192.389 20.3116 192.101C19.9112 191.842 19.379 191.713 18.7149 191.713C17.797 191.713 17.15 191.994 16.774 192.555C16.6471 192.746 16.5836 192.987 16.5836 193.28C16.5836 193.573 16.6373 193.839 16.7447 194.079C16.857 194.313 17.0133 194.506 17.2135 194.657ZM16.4957 197.228C16.3443 197.448 16.2686 197.716 16.2686 198.034C16.2686 198.346 16.3394 198.62 16.481 198.854C16.6226 199.088 16.8106 199.286 17.045 199.447C17.5186 199.76 18.1192 199.916 18.8468 199.916C19.9454 199.916 20.6925 199.582 21.088 198.913C21.2198 198.683 21.2857 198.412 21.2857 198.1C21.2857 197.782 21.21 197.511 21.0587 197.287C20.9073 197.057 20.7096 196.869 20.4654 196.723C19.9869 196.435 19.4034 196.291 18.7149 196.291C17.6651 196.291 16.9254 196.603 16.4957 197.228ZM24.3542 195.902C24.3542 195.121 24.4713 194.396 24.7057 193.727C24.945 193.058 25.2868 192.484 25.7311 192.006C26.6735 190.99 27.9308 190.482 29.5031 190.482C31.0216 190.482 32.2399 190.971 33.1579 191.947C34.0661 192.909 34.5202 194.162 34.5202 195.705C34.5202 197.331 34.0612 198.637 33.1432 199.623C32.2008 200.639 30.9435 201.146 29.3713 201.146C27.8527 201.146 26.632 200.658 25.7091 199.682C24.8058 198.729 24.3542 197.47 24.3542 195.902ZM25.7897 195.719C25.7897 196.305 25.8703 196.854 26.0314 197.367C26.1974 197.88 26.4391 198.327 26.7565 198.708C27.4352 199.523 28.3507 199.931 29.5031 199.931C30.6261 199.931 31.5099 199.55 32.1545 198.788C32.7746 198.056 33.0846 197.101 33.0846 195.924C33.0846 194.694 32.7624 193.693 32.1178 192.921C31.4391 192.106 30.5236 191.698 29.3713 191.698C28.2531 191.698 27.3693 192.079 26.7199 192.841C26.0998 193.563 25.7897 194.523 25.7897 195.719ZM36.197 195.902C36.197 195.121 36.3142 194.396 36.5486 193.727C36.7878 193.058 37.1296 192.484 37.574 192.006C38.5163 190.99 39.7737 190.482 41.3459 190.482C42.8645 190.482 44.0828 190.971 45.0007 191.947C45.9089 192.909 46.363 194.162 46.363 195.705C46.363 197.331 45.904 198.637 44.9861 199.623C44.0437 200.639 42.7864 201.146 41.2141 201.146C39.6955 201.146 38.4748 200.658 37.552 199.682C36.6487 198.729 36.197 197.47 36.197 195.902ZM37.6326 195.719C37.6326 196.305 37.7131 196.854 37.8743 197.367C38.0403 197.88 38.282 198.327 38.5994 198.708C39.2781 199.523 40.1936 199.931 41.3459 199.931C42.469 199.931 43.3528 199.55 43.9973 198.788C44.6174 198.056 44.9275 197.101 44.9275 195.924C44.9275 194.694 44.6052 193.693 43.9607 192.921C43.282 192.106 42.3664 191.698 41.2141 191.698C40.0959 191.698 39.2121 192.079 38.5627 192.841C37.9426 193.563 37.6326 194.523 37.6326 195.719Z" fill="black"/>
<path d="M9.54492 536.94L6.79834 538.493L6.40283 537.313L9.54492 535.629H10.8999V546H9.54492V536.94ZM19.9083 541.334C18.9415 541.886 17.8624 542.162 16.671 542.162C15.6065 542.162 14.7398 541.908 14.0709 541.4C13.3482 540.863 12.9869 540.104 12.9869 539.123C12.9869 538.048 13.3922 537.167 14.2027 536.479C14.9888 535.814 15.9483 535.482 17.0811 535.482C18.4337 535.482 19.5006 535.897 20.2818 536.728C21.0533 537.548 21.439 538.649 21.439 540.031C21.439 542.897 20.4893 544.774 18.5899 545.663C17.8331 546.02 16.9737 546.181 16.0118 546.146C15.1524 546.112 14.3248 545.922 13.5289 545.575L13.8804 544.411C15.3892 545.016 16.6734 545.111 17.733 544.696C18.9195 544.228 19.6446 543.107 19.9083 541.334ZM20.0035 539.848C20.0035 538.905 19.7301 538.146 19.1832 537.57C18.6265 536.989 17.8819 536.698 16.9493 536.698C16.2315 536.698 15.6383 536.894 15.1695 537.284C14.6715 537.699 14.4224 538.239 14.4224 538.903C14.4224 539.533 14.6568 540.033 15.1256 540.404C15.5699 540.756 16.129 540.932 16.8028 540.932C17.7208 540.932 18.5826 540.731 19.3883 540.331C19.6275 540.214 19.8326 540.094 20.0035 539.972V539.848ZM22.984 540.902C22.984 540.121 23.1012 539.396 23.3356 538.727C23.5749 538.058 23.9167 537.484 24.361 537.006C25.3034 535.99 26.5607 535.482 28.133 535.482C29.6515 535.482 30.8698 535.971 31.7878 536.947C32.696 537.909 33.1501 539.162 33.1501 540.705C33.1501 542.331 32.6911 543.637 31.7731 544.623C30.8307 545.639 29.5734 546.146 28.0011 546.146C26.4826 546.146 25.2619 545.658 24.339 544.682C23.4357 543.729 22.984 542.47 22.984 540.902ZM24.4196 540.719C24.4196 541.305 24.5002 541.854 24.6613 542.367C24.8273 542.88 25.069 543.327 25.3864 543.708C26.0651 544.523 26.9806 544.931 28.133 544.931C29.256 544.931 30.1398 544.55 30.7843 543.788C31.4045 543.056 31.7145 542.101 31.7145 540.924C31.7145 539.694 31.3922 538.693 30.7477 537.921C30.069 537.106 29.1535 536.698 28.0011 536.698C26.883 536.698 25.9992 537.079 25.3498 537.841C24.7296 538.563 24.4196 539.523 24.4196 540.719ZM34.8269 540.902C34.8269 540.121 34.9441 539.396 35.1785 538.727C35.4177 538.058 35.7595 537.484 36.2038 537.006C37.1462 535.99 38.4036 535.482 39.9758 535.482C41.4944 535.482 42.7126 535.971 43.6306 536.947C44.5388 537.909 44.9929 539.162 44.9929 540.705C44.9929 542.331 44.5339 543.637 43.616 544.623C42.6736 545.639 41.4163 546.146 39.844 546.146C38.3254 546.146 37.1047 545.658 36.1819 544.682C35.2786 543.729 34.8269 542.47 34.8269 540.902ZM36.2624 540.719C36.2624 541.305 36.343 541.854 36.5041 542.367C36.6702 542.88 36.9119 543.327 37.2292 543.708C37.9079 544.523 38.8235 544.931 39.9758 544.931C41.0989 544.931 41.9827 544.55 42.6272 543.788C43.2473 543.056 43.5574 542.101 43.5574 540.924C43.5574 539.694 43.2351 538.693 42.5906 537.921C41.9119 537.106 40.9963 536.698 39.844 536.698C38.7258 536.698 37.842 537.079 37.1926 537.841C36.5725 538.563 36.2624 539.523 36.2624 540.719Z" fill="black"/>
<path d="M6.08398 914.77L8.83057 912.396C10.6177 910.839 11.5112 909.594 11.5112 908.661C11.5112 907.982 11.3281 907.489 10.9619 907.182C10.6006 906.869 10.0415 906.713 9.28467 906.713C8.66943 906.713 7.92969 906.884 7.06543 907.226C6.85059 907.309 6.68213 907.382 6.56006 907.445L6.18652 906.281C6.8457 905.944 7.66602 905.702 8.64746 905.556C8.95996 905.507 9.30908 905.482 9.69482 905.482C10.0806 905.482 10.4834 905.553 10.9033 905.695C11.3281 905.836 11.6919 906.039 11.9946 906.303C12.6294 906.854 12.9468 907.611 12.9468 908.573C12.9468 909.887 12.0215 911.322 10.1709 912.88L7.98828 914.718L13.2178 914.711V916H6.08398V914.77ZM14.8287 910.902C14.8287 910.121 14.9459 909.396 15.1803 908.727C15.4195 908.058 15.7613 907.484 16.2056 907.006C17.148 905.99 18.4054 905.482 19.9776 905.482C21.4962 905.482 22.7144 905.971 23.6324 906.947C24.5406 907.909 24.9947 909.162 24.9947 910.705C24.9947 912.331 24.5357 913.637 23.6178 914.623C22.6754 915.639 21.418 916.146 19.8458 916.146C18.3272 916.146 17.1065 915.658 16.1837 914.682C15.2804 913.729 14.8287 912.47 14.8287 910.902ZM16.2642 910.719C16.2642 911.305 16.3448 911.854 16.5059 912.367C16.672 912.88 16.9137 913.327 17.231 913.708C17.9097 914.523 18.8253 914.931 19.9776 914.931C21.1007 914.931 21.9845 914.55 22.629 913.788C23.2491 913.056 23.5592 912.101 23.5592 910.924C23.5592 909.694 23.2369 908.693 22.5924 907.921C21.9137 907.106 20.9981 906.698 19.8458 906.698C18.7276 906.698 17.8438 907.079 17.1944 907.841C16.5743 908.563 16.2642 909.523 16.2642 910.719ZM26.6715 910.902C26.6715 910.121 26.7887 909.396 27.0231 908.727C27.2624 908.058 27.6042 907.484 28.0485 907.006C28.9909 905.99 30.2482 905.482 31.8205 905.482C33.339 905.482 34.5573 905.971 35.4753 906.947C36.3835 907.909 36.8376 909.162 36.8376 910.705C36.8376 912.331 36.3786 913.637 35.4606 914.623C34.5182 915.639 33.2609 916.146 31.6886 916.146C30.1701 916.146 28.9494 915.658 28.0265 914.682C27.1232 913.729 26.6715 912.47 26.6715 910.902ZM28.1071 910.719C28.1071 911.305 28.1877 911.854 28.3488 912.367C28.5148 912.88 28.7565 913.327 29.0739 913.708C29.7526 914.523 30.6681 914.931 31.8205 914.931C32.9435 914.931 33.8273 914.55 34.4718 913.788C35.092 913.056 35.402 912.101 35.402 910.924C35.402 909.694 35.0797 908.693 34.4352 907.921C33.7565 907.106 32.841 906.698 31.6886 906.698C30.5705 906.698 29.6867 907.079 29.0373 907.841C28.4171 908.563 28.1071 909.523 28.1071 910.719ZM38.5144 910.902C38.5144 910.121 38.6316 909.396 38.866 908.727C39.1052 908.058 39.447 907.484 39.8913 907.006C40.8337 905.99 42.0911 905.482 43.6633 905.482C45.1819 905.482 46.4001 905.971 47.3181 906.947C48.2263 907.909 48.6804 909.162 48.6804 910.705C48.6804 912.331 48.2214 913.637 47.3035 914.623C46.3611 915.639 45.1037 916.146 43.5315 916.146C42.0129 916.146 40.7922 915.658 39.8694 914.682C38.9661 913.729 38.5144 912.47 38.5144 910.902ZM39.9499 910.719C39.9499 911.305 40.0305 911.854 40.1916 912.367C40.3577 912.88 40.5994 913.327 40.9167 913.708C41.5954 914.523 42.511 914.931 43.6633 914.931C44.7864 914.931 45.6702 914.55 46.3147 913.788C46.9348 913.056 47.2449 912.101 47.2449 910.924C47.2449 909.694 46.9226 908.693 46.2781 907.921C45.5994 907.106 44.6838 906.698 43.5315 906.698C42.4133 906.698 41.5295 907.079 40.8801 907.841C40.26 908.563 39.9499 909.523 39.9499 910.719Z" fill="#F5F5F5"/>
<line x1="28.5" y1="210" x2="28.5" y2="350" stroke="black"/>
<line x1="28.5" y1="382" x2="28.5" y2="522" stroke="black"/>
<path d="M15.8359 362.752L13.6387 363.994L13.3223 363.051L15.8359 361.703H16.9199V370H15.8359V362.752ZM19.404 369.52C19.1227 369.316 18.8981 369.062 18.7301 368.758C18.5661 368.449 18.484 368.135 18.484 367.814C18.484 367.49 18.5231 367.225 18.6012 367.018C18.6833 366.807 18.7907 366.613 18.9235 366.438C19.2048 366.074 19.5544 365.82 19.9723 365.676V365.641C19.6286 365.543 19.3376 365.332 19.0993 365.008C18.8493 364.672 18.7243 364.311 18.7243 363.924C18.7243 363.533 18.8083 363.197 18.9762 362.916C19.1442 362.631 19.3649 362.391 19.6383 362.195C20.2048 361.789 20.8844 361.586 21.6774 361.586C22.4821 361.586 23.1501 361.773 23.6813 362.148C24.2477 362.555 24.5309 363.098 24.5309 363.777C24.5309 364.402 24.2751 364.91 23.7633 365.301C23.5915 365.43 23.3923 365.533 23.1657 365.611V365.641C23.9469 365.859 24.4548 366.291 24.6891 366.936C24.7633 367.146 24.8005 367.381 24.8005 367.639C24.8005 367.893 24.7575 368.133 24.6715 368.359C24.5856 368.586 24.4665 368.793 24.3141 368.98C24.1657 369.164 23.988 369.326 23.7809 369.467C23.5778 369.607 23.3571 369.727 23.1188 369.824C22.6423 370.02 22.1618 370.117 21.6774 370.117C21.193 370.117 20.7633 370.068 20.3883 369.971C20.0173 369.869 19.6891 369.719 19.404 369.52ZM20.3708 364.926C20.5309 365.043 20.7223 365.129 20.945 365.184C21.1676 365.238 21.3942 365.266 21.6247 365.266C21.859 365.266 22.0778 365.232 22.2809 365.166C22.484 365.096 22.6676 364.998 22.8317 364.873C23.1989 364.592 23.3825 364.25 23.3825 363.848C23.3825 363.434 23.2048 363.111 22.8493 362.881C22.529 362.674 22.1032 362.57 21.5719 362.57C20.8376 362.57 20.32 362.795 20.0192 363.244C19.9176 363.396 19.8669 363.59 19.8669 363.824C19.8669 364.059 19.9098 364.271 19.9958 364.463C20.0856 364.65 20.2106 364.805 20.3708 364.926ZM19.7965 366.982C19.6755 367.158 19.6149 367.373 19.6149 367.627C19.6149 367.877 19.6715 368.096 19.7848 368.283C19.8981 368.471 20.0485 368.629 20.236 368.758C20.6149 369.008 21.0954 369.133 21.6774 369.133C22.5563 369.133 23.154 368.865 23.4704 368.33C23.5758 368.146 23.6286 367.93 23.6286 367.68C23.6286 367.426 23.568 367.209 23.4469 367.029C23.3258 366.846 23.1676 366.695 22.9723 366.578C22.5895 366.348 22.1227 366.232 21.5719 366.232C20.7321 366.232 20.1403 366.482 19.7965 366.982ZM26.2533 368.506C26.9876 368.924 27.7747 369.133 28.6146 369.133C29.224 369.133 29.7259 368.996 30.1204 368.723C30.5423 368.434 30.7533 368.025 30.7533 367.498C30.7533 366.861 30.3626 366.426 29.5814 366.191C28.8118 365.965 27.7513 365.963 26.3997 366.186V361.703H31.4095V362.688H27.4837V365.107C28.7025 364.943 29.722 365.039 30.5423 365.395C31.4642 365.793 31.9251 366.477 31.9251 367.445C31.9251 368.301 31.5579 368.973 30.8236 369.461C30.1673 369.898 29.3743 370.117 28.4447 370.117C27.4603 370.117 26.6263 369.904 25.9427 369.479L26.2533 368.506ZM33.2725 365.922C33.2725 365.297 33.3662 364.717 33.5537 364.182C33.7451 363.646 34.0185 363.188 34.374 362.805C35.1279 361.992 36.1338 361.586 37.3916 361.586C38.6064 361.586 39.581 361.977 40.3154 362.758C41.042 363.527 41.4053 364.529 41.4053 365.764C41.4053 367.064 41.0381 368.109 40.3037 368.898C39.5498 369.711 38.5439 370.117 37.2861 370.117C36.0713 370.117 35.0947 369.727 34.3564 368.945C33.6338 368.184 33.2725 367.176 33.2725 365.922ZM34.4209 365.775C34.4209 366.244 34.4853 366.684 34.6143 367.094C34.7471 367.504 34.9404 367.861 35.1943 368.166C35.7373 368.818 36.4697 369.145 37.3916 369.145C38.29 369.145 38.9971 368.84 39.5127 368.23C40.0088 367.645 40.2568 366.881 40.2568 365.939C40.2568 364.955 39.999 364.154 39.4834 363.537C38.9404 362.885 38.208 362.559 37.2861 362.559C36.3916 362.559 35.6846 362.863 35.165 363.473C34.6689 364.051 34.4209 364.818 34.4209 365.775Z" fill="black"/>
<line x1="28.5" y1="742" x2="28.5" y2="893" stroke="#F5F5F5"/>
<path d="M15.8359 722.752L13.6387 723.994L13.3223 723.051L15.8359 721.703H16.9199V730H15.8359V722.752ZM24.1266 726.268C23.3532 726.709 22.4899 726.93 21.5368 726.93C20.6852 726.93 19.9919 726.727 19.4567 726.32C18.8786 725.891 18.5895 725.283 18.5895 724.498C18.5895 723.639 18.9137 722.934 19.5622 722.383C20.1911 721.852 20.9587 721.586 21.8649 721.586C22.9469 721.586 23.8005 721.918 24.4255 722.582C25.0426 723.238 25.3512 724.119 25.3512 725.225C25.3512 727.518 24.5915 729.02 23.0719 729.73C22.4665 730.016 21.779 730.145 21.0094 730.117C20.3219 730.09 19.6598 729.938 19.0231 729.66L19.3044 728.729C20.5114 729.213 21.5387 729.289 22.3864 728.957C23.3356 728.582 23.9157 727.686 24.1266 726.268ZM24.2028 725.078C24.2028 724.324 23.984 723.717 23.5465 723.256C23.1012 722.791 22.5055 722.559 21.7594 722.559C21.1852 722.559 20.7106 722.715 20.3356 723.027C19.9372 723.359 19.738 723.791 19.738 724.322C19.738 724.826 19.9255 725.227 20.3005 725.523C20.6559 725.805 21.1032 725.945 21.6423 725.945C22.3766 725.945 23.0661 725.785 23.7106 725.465C23.902 725.371 24.0661 725.275 24.2028 725.178V725.078ZM26.7572 728.506C27.4915 728.924 28.2786 729.133 29.1185 729.133C29.7279 729.133 30.2298 728.996 30.6243 728.723C31.0462 728.434 31.2572 728.025 31.2572 727.498C31.2572 726.861 30.8665 726.426 30.0853 726.191C29.3158 725.965 28.2552 725.963 26.9036 726.186V721.703H31.9134V722.688H27.9876V725.107C29.2064 724.943 30.2259 725.039 31.0462 725.395C31.9681 725.793 32.429 726.477 32.429 727.445C32.429 728.301 32.0618 728.973 31.3275 729.461C30.6712 729.898 29.8783 730.117 28.9486 730.117C27.9642 730.117 27.1302 729.904 26.4466 729.479L26.7572 728.506ZM33.7764 725.922C33.7764 725.297 33.8701 724.717 34.0576 724.182C34.249 723.646 34.5225 723.188 34.8779 722.805C35.6318 721.992 36.6377 721.586 37.8955 721.586C39.1103 721.586 40.085 721.977 40.8193 722.758C41.5459 723.527 41.9092 724.529 41.9092 725.764C41.9092 727.064 41.542 728.109 40.8076 728.898C40.0537 729.711 39.0478 730.117 37.79 730.117C36.5752 730.117 35.5986 729.727 34.8603 728.945C34.1377 728.184 33.7764 727.176 33.7764 725.922ZM34.9248 725.775C34.9248 726.244 34.9893 726.684 35.1182 727.094C35.251 727.504 35.4443 727.861 35.6982 728.166C36.2412 728.818 36.9736 729.145 37.8955 729.145C38.7939 729.145 39.501 728.84 40.0166 728.23C40.5127 727.645 40.7607 726.881 40.7607 725.939C40.7607 724.955 40.5029 724.154 39.9873 723.537C39.4443 722.885 38.7119 722.559 37.79 722.559C36.8955 722.559 36.1885 722.863 35.6689 723.473C35.1728 724.051 34.9248 724.818 34.9248 725.775Z" fill="#F5F5F5"/>
<rect x="28" y="20" width="1" height="159" fill="url(#paint1_linear_64_1019)"/>
<rect x="29" y="710" width="1" height="151" transform="rotate(-180 29 710)" fill="url(#paint2_linear_64_1019)"/>
<defs>
<linearGradient id="paint0_linear_64_1019" x1="28" y1="0" x2="28" y2="964.5" gradientUnits="userSpaceOnUse">
<stop stop-color="#7C0808"/>
<stop offset="0.208333" stop-color="#929292"/>
<stop offset="0.453125" stop-color="#929292"/>
<stop offset="0.911458" stop-color="#5B1E77"/>
</linearGradient>
<linearGradient id="paint1_linear_64_1019" x1="28.5" y1="20" x2="28.5" y2="179" gradientUnits="userSpaceOnUse">
<stop stop-color="#F5F5F5"/>
<stop offset="0.744792"/>
</linearGradient>
<linearGradient id="paint2_linear_64_1019" x1="29.5" y1="710" x2="29.5" y2="861" gradientUnits="userSpaceOnUse">
<stop stop-color="#F5F5F5"/>
<stop offset="0.177083"/>
</linearGradient>
</defs>
</svg>
