<svg width="117" height="50" viewBox="0 0 117 50" fill="none" xmlns="http://www.w3.org/2000/svg">
<circle cx="114" cy="47" r="3" transform="rotate(90 114 47)" fill="#7C0808" fill-opacity="0.7"/>
<circle cx="26" cy="47" r="3" transform="rotate(90 26 47)" fill="#7C0808" fill-opacity="0.7"/>
<circle cx="70" cy="47" r="3" transform="rotate(90 70 47)" fill="#7C0808" fill-opacity="0.7"/>
<circle cx="91" cy="47" r="3" transform="rotate(90 91 47)" fill="#7C0808" fill-opacity="0.7"/>
<circle cx="3" cy="47" r="3" transform="rotate(90 3 47)" fill="#7C0808" fill-opacity="0.7"/>
<circle cx="47" cy="47" r="3" transform="rotate(90 47 47)" fill="#7C0808" fill-opacity="0.7"/>
<circle cx="114" cy="3" r="3" transform="rotate(90 114 3)" fill="#7C0808" fill-opacity="0.7"/>
<circle cx="26" cy="3" r="3" transform="rotate(90 26 3)" fill="#7C0808" fill-opacity="0.7"/>
<circle cx="70" cy="3" r="3" transform="rotate(90 70 3)" fill="#7C0808" fill-opacity="0.7"/>
<circle cx="91" cy="3" r="3" transform="rotate(90 91 3)" fill="#7C0808" fill-opacity="0.7"/>
<circle cx="3" cy="3" r="3" transform="rotate(90 3 3)" fill="#7C0808" fill-opacity="0.7"/>
<circle cx="47" cy="3" r="3" transform="rotate(90 47 3)" fill="#7C0808" fill-opacity="0.7"/>
<circle cx="114" cy="25" r="3" transform="rotate(90 114 25)" fill="#7C0808" fill-opacity="0.7"/>
<circle cx="26" cy="25" r="3" transform="rotate(90 26 25)" fill="#7C0808" fill-opacity="0.7"/>
<circle cx="70" cy="25" r="3" transform="rotate(90 70 25)" fill="#7C0808" fill-opacity="0.7"/>
<circle cx="91" cy="25" r="3" transform="rotate(90 91 25)" fill="#7C0808" fill-opacity="0.7"/>
<circle cx="3" cy="25" r="3" transform="rotate(90 3 25)" fill="#7C0808" fill-opacity="0.7"/>
<circle cx="47" cy="25" r="3" transform="rotate(90 47 25)" fill="#7C0808" fill-opacity="0.7"/>
</svg>
