<svg width="375" height="187" viewBox="0 0 375 187" fill="none" xmlns="http://www.w3.org/2000/svg">
<rect width="375" height="187" fill="#7C0808"/>
<path d="M185.986 19.5V22.44C185.986 22.72 185.928 22.9067 185.811 23C185.718 23.0933 185.543 23.14 185.286 23.14H181.541V43.3C181.541 43.5567 181.471 43.7317 181.331 43.825C181.214 43.895 180.841 43.9417 180.211 43.965C179.581 43.9883 178.729 44 177.656 44V23.14H173.386V20.2C173.386 19.7333 173.619 19.5 174.086 19.5H185.986ZM186.717 28.215C186.717 27.6317 186.822 27.235 187.032 27.025C187.242 26.7917 187.592 26.6517 188.082 26.605C188.572 26.535 189.435 26.5 190.672 26.5V43.3C190.672 43.5567 190.614 43.7317 190.497 43.825C190.38 43.895 189.995 43.9417 189.342 43.965C188.689 43.9883 187.814 44 186.717 44V28.215ZM188.607 24.89C187.977 24.89 187.499 24.68 187.172 24.26C186.869 23.84 186.717 23.1167 186.717 22.09C186.717 21.25 186.892 20.585 187.242 20.095C187.615 19.605 188.152 19.36 188.852 19.36C189.552 19.36 190.03 19.5467 190.287 19.92C190.544 20.2933 190.672 20.9583 190.672 21.915C190.672 22.8483 190.497 23.5833 190.147 24.12C189.797 24.6333 189.284 24.89 188.607 24.89ZM205.38 26.15C206.523 26.15 207.375 26.3367 207.935 26.71C208.518 27.06 208.891 27.5617 209.055 28.215C209.241 28.8683 209.335 29.7667 209.335 30.91V43.3C209.335 43.5567 209.265 43.7317 209.125 43.825C209.008 43.895 208.623 43.9417 207.97 43.965C207.34 43.9883 206.5 44 205.45 44V31.015C205.45 30.455 205.38 30.07 205.24 29.86C205.1 29.65 204.82 29.545 204.4 29.545C203.91 29.545 203.466 29.65 203.07 29.86V43.3C203.07 43.5567 203.011 43.7317 202.895 43.825C202.801 43.895 202.44 43.9417 201.81 43.965C201.203 43.9883 200.363 44 199.29 44H199.255H199.185V30.875C199.185 30.2917 199.115 29.9183 198.975 29.755C198.858 29.5683 198.59 29.475 198.17 29.475C197.75 29.475 197.295 29.615 196.805 29.895V43.3C196.805 43.5567 196.735 43.7317 196.595 43.825C196.478 43.895 196.105 43.9417 195.475 43.965C194.845 43.9883 193.993 44 192.92 44V27.305C194.576 26.535 196.373 26.15 198.31 26.15C199.57 26.15 200.55 26.465 201.25 27.095C201.856 26.7917 202.521 26.5583 203.245 26.395C203.991 26.2317 204.703 26.15 205.38 26.15ZM217 40.57C218.12 40.57 219.357 40.2433 220.71 39.59C220.92 40.29 221.025 41.1533 221.025 42.18C221.025 42.8567 220.547 43.3933 219.59 43.79C218.657 44.1633 217.478 44.35 216.055 44.35C214.305 44.35 212.963 43.755 212.03 42.565C211.097 41.3517 210.63 39.1933 210.63 36.09C210.63 33.43 210.898 31.365 211.435 29.895C211.995 28.425 212.718 27.4333 213.605 26.92C214.492 26.4067 215.553 26.15 216.79 26.15C219.777 26.15 221.27 28.0517 221.27 31.855C221.27 33.885 221.107 35.5417 220.78 36.825C219.45 37.105 217.42 37.2683 214.69 37.315C214.76 38.505 214.958 39.345 215.285 39.835C215.612 40.325 216.183 40.57 217 40.57ZM216.3 29.51C215.763 29.51 215.367 29.895 215.11 30.665C214.877 31.435 214.737 32.6367 214.69 34.27C215.997 34.27 216.872 34.165 217.315 33.955C217.432 33.605 217.49 32.9983 217.49 32.135C217.49 31.0617 217.408 30.3617 217.245 30.035C217.082 29.685 216.767 29.51 216.3 29.51ZM222.381 19.99C222.381 19.4067 222.486 19.01 222.696 18.8C222.906 18.5667 223.244 18.4267 223.711 18.38C224.201 18.31 225.052 18.275 226.266 18.275V43.3C226.266 43.5567 226.207 43.7317 226.091 43.825C225.974 43.895 225.601 43.9417 224.971 43.965C224.341 43.9883 223.477 44 222.381 44V19.99ZM227.831 28.215C227.831 27.6317 227.936 27.235 228.146 27.025C228.356 26.7917 228.706 26.6517 229.196 26.605C229.686 26.535 230.55 26.5 231.786 26.5V43.3C231.786 43.5567 231.728 43.7317 231.611 43.825C231.495 43.895 231.11 43.9417 230.456 43.965C229.803 43.9883 228.928 44 227.831 44V28.215ZM229.721 24.89C229.091 24.89 228.613 24.68 228.286 24.26C227.983 23.84 227.831 23.1167 227.831 22.09C227.831 21.25 228.006 20.585 228.356 20.095C228.73 19.605 229.266 19.36 229.966 19.36C230.666 19.36 231.145 19.5467 231.401 19.92C231.658 20.2933 231.786 20.9583 231.786 21.915C231.786 22.8483 231.611 23.5833 231.261 24.12C230.911 24.6333 230.398 24.89 229.721 24.89ZM234.034 27.305C234.641 27.025 235.481 26.7683 236.554 26.535C237.651 26.2783 238.619 26.15 239.459 26.15C241.279 26.15 242.574 26.4767 243.344 27.13C244.114 27.7833 244.499 28.9617 244.499 30.665V43.3C244.499 43.5567 244.429 43.7317 244.289 43.825C244.172 43.895 243.776 43.9417 243.099 43.965C242.446 43.9883 241.571 44 240.474 44V31.89C240.474 30.9333 240.392 30.2917 240.229 29.965C240.089 29.6383 239.786 29.475 239.319 29.475C238.806 29.475 238.339 29.615 237.919 29.895V43.3C237.919 43.5567 237.849 43.7317 237.709 43.825C237.592 43.895 237.219 43.9417 236.589 43.965C235.959 43.9883 235.107 44 234.034 44V27.305ZM252.201 40.57C253.321 40.57 254.558 40.2433 255.911 39.59C256.121 40.29 256.226 41.1533 256.226 42.18C256.226 42.8567 255.748 43.3933 254.791 43.79C253.858 44.1633 252.68 44.35 251.256 44.35C249.506 44.35 248.165 43.755 247.231 42.565C246.298 41.3517 245.831 39.1933 245.831 36.09C245.831 33.43 246.1 31.365 246.636 29.895C247.196 28.425 247.92 27.4333 248.806 26.92C249.693 26.4067 250.755 26.15 251.991 26.15C254.978 26.15 256.471 28.0517 256.471 31.855C256.471 33.885 256.308 35.5417 255.981 36.825C254.651 37.105 252.621 37.2683 249.891 37.315C249.961 38.505 250.16 39.345 250.486 39.835C250.813 40.325 251.385 40.57 252.201 40.57ZM251.501 29.51C250.965 29.51 250.568 29.895 250.311 30.665C250.078 31.435 249.938 32.6367 249.891 34.27C251.198 34.27 252.073 34.165 252.516 33.955C252.633 33.605 252.691 32.9983 252.691 32.135C252.691 31.0617 252.61 30.3617 252.446 30.035C252.283 29.685 251.968 29.51 251.501 29.51ZM179.266 75.35C177.889 75.35 176.816 75.1283 176.046 74.685C175.276 74.2183 174.693 73.3317 174.296 72.025C173.923 70.7183 173.736 68.7817 173.736 66.215C173.736 60.1717 175.673 57.15 179.546 57.15C180.853 57.15 181.891 57.4183 182.661 57.955C183.454 58.4683 184.038 59.3667 184.411 60.65C184.808 61.9333 185.006 63.7417 185.006 66.075C185.006 69.365 184.528 71.7333 183.571 73.18C182.638 74.6267 181.203 75.35 179.266 75.35ZM179.371 72.13C179.651 72.13 179.884 72.0017 180.071 71.745C180.258 71.465 180.409 70.8933 180.526 70.03C180.666 69.1433 180.736 67.86 180.736 66.18C180.736 64.4767 180.701 63.2283 180.631 62.435C180.561 61.6183 180.433 61.07 180.246 60.79C180.059 60.51 179.779 60.37 179.406 60.37C178.963 60.37 178.613 60.7667 178.356 61.56C178.123 62.3533 178.006 63.8933 178.006 66.18C178.006 67.93 178.053 69.2367 178.146 70.1C178.263 70.94 178.414 71.4883 178.601 71.745C178.788 72.0017 179.044 72.13 179.371 72.13ZM186.713 60.72H184.613C184.613 59.6 184.625 58.8417 184.648 58.445C184.671 58.0483 184.741 57.7917 184.858 57.675C184.998 57.5583 185.231 57.5 185.558 57.5H186.713V55.505C186.713 53.055 187.285 51.3867 188.428 50.5C189.571 49.6133 191.03 49.17 192.803 49.17C193.923 49.17 194.786 49.3217 195.393 49.625C196 49.9283 196.303 50.3833 196.303 50.99C196.303 51.69 196.175 52.39 195.918 53.09C195.288 52.7867 194.495 52.635 193.538 52.635C192.581 52.635 191.846 52.81 191.333 53.16C190.843 53.51 190.598 54.1517 190.598 55.085V57.5H193.153C193.153 58.55 193.13 59.285 193.083 59.705C193.06 60.125 193.001 60.405 192.908 60.545C192.815 60.6617 192.651 60.72 192.418 60.72H190.598V74.3C190.598 74.4167 190.551 74.5683 190.458 74.755C190.388 74.9183 190.201 75 189.898 75H186.713V60.72ZM214.053 75.35C211.299 75.35 209.923 74.6617 209.923 73.285C209.923 72.6083 210.133 71.885 210.553 71.115C211.509 71.6283 212.536 71.885 213.633 71.885C214.239 71.885 214.694 71.7567 214.998 71.5C215.301 71.22 215.453 70.8467 215.453 70.38C215.453 69.68 215.184 69.0267 214.648 68.42L211.603 65.2C211.019 64.5933 210.588 63.9633 210.308 63.31C210.028 62.6567 209.888 62.05 209.888 61.49C209.888 60.16 210.343 59.11 211.253 58.34C212.163 57.5467 213.633 57.15 215.663 57.15C217.389 57.15 218.533 57.3717 219.093 57.815C219.676 58.235 219.968 58.7483 219.968 59.355C219.968 59.6583 219.898 59.985 219.758 60.335C219.641 60.6617 219.466 60.9533 219.233 61.21C218.323 60.72 217.308 60.475 216.188 60.475C215.068 60.475 214.508 60.8367 214.508 61.56C214.508 61.7933 214.578 62.0383 214.718 62.295C214.858 62.5517 215.138 62.89 215.558 63.31L218.148 65.935C218.824 66.7283 219.279 67.44 219.513 68.07C219.769 68.6767 219.898 69.4233 219.898 70.31C219.898 71.8733 219.373 73.11 218.323 74.02C217.273 74.9067 215.849 75.35 214.053 75.35ZM225.894 75.35C224.518 75.35 223.444 75.1283 222.674 74.685C221.904 74.2183 221.321 73.3317 220.924 72.025C220.551 70.7183 220.364 68.7817 220.364 66.215C220.364 60.1717 222.301 57.15 226.174 57.15C227.481 57.15 228.519 57.4183 229.289 57.955C230.083 58.4683 230.666 59.3667 231.039 60.65C231.436 61.9333 231.634 63.7417 231.634 66.075C231.634 69.365 231.156 71.7333 230.199 73.18C229.266 74.6267 227.831 75.35 225.894 75.35ZM225.999 72.13C226.279 72.13 226.513 72.0017 226.699 71.745C226.886 71.465 227.038 70.8933 227.154 70.03C227.294 69.1433 227.364 67.86 227.364 66.18C227.364 64.4767 227.329 63.2283 227.259 62.435C227.189 61.6183 227.061 61.07 226.874 60.79C226.688 60.51 226.408 60.37 226.034 60.37C225.591 60.37 225.241 60.7667 224.984 61.56C224.751 62.3533 224.634 63.8933 224.634 66.18C224.634 67.93 224.681 69.2367 224.774 70.1C224.891 70.94 225.043 71.4883 225.229 71.745C225.416 72.0017 225.673 72.13 225.999 72.13ZM245.19 57.15C246.333 57.15 247.185 57.3367 247.745 57.71C248.328 58.06 248.702 58.5617 248.865 59.215C249.052 59.8683 249.145 60.7667 249.145 61.91V74.3C249.145 74.5567 249.075 74.7317 248.935 74.825C248.818 74.895 248.433 74.9417 247.78 74.965C247.15 74.9883 246.31 75 245.26 75V62.015C245.26 61.455 245.19 61.07 245.05 60.86C244.91 60.65 244.63 60.545 244.21 60.545C243.72 60.545 243.277 60.65 242.88 60.86V74.3C242.88 74.5567 242.822 74.7317 242.705 74.825C242.612 74.895 242.25 74.9417 241.62 74.965C241.013 74.9883 240.173 75 239.1 75H239.065H238.995V61.875C238.995 61.2917 238.925 60.9183 238.785 60.755C238.668 60.5683 238.4 60.475 237.98 60.475C237.56 60.475 237.105 60.615 236.615 60.895V74.3C236.615 74.5567 236.545 74.7317 236.405 74.825C236.288 74.895 235.915 74.9417 235.285 74.965C234.655 74.9883 233.803 75 232.73 75V58.305C234.387 57.535 236.183 57.15 238.12 57.15C239.38 57.15 240.36 57.465 241.06 58.095C241.667 57.7917 242.332 57.5583 243.055 57.395C243.802 57.2317 244.513 57.15 245.19 57.15ZM256.811 71.57C257.931 71.57 259.167 71.2433 260.521 70.59C260.731 71.29 260.836 72.1533 260.836 73.18C260.836 73.8567 260.357 74.3933 259.401 74.79C258.467 75.1633 257.289 75.35 255.866 75.35C254.116 75.35 252.774 74.755 251.841 73.565C250.907 72.3517 250.441 70.1933 250.441 67.09C250.441 64.43 250.709 62.365 251.246 60.895C251.806 59.425 252.529 58.4333 253.416 57.92C254.302 57.4067 255.364 57.15 256.601 57.15C259.587 57.15 261.081 59.0517 261.081 62.855C261.081 64.885 260.917 66.5417 260.591 67.825C259.261 68.105 257.231 68.2683 254.501 68.315C254.571 69.505 254.769 70.345 255.096 70.835C255.422 71.325 255.994 71.57 256.811 71.57ZM256.111 60.51C255.574 60.51 255.177 60.895 254.921 61.665C254.687 62.435 254.547 63.6367 254.501 65.27C255.807 65.27 256.682 65.165 257.126 64.955C257.242 64.605 257.301 63.9983 257.301 63.135C257.301 62.0617 257.219 61.3617 257.056 61.035C256.892 60.685 256.577 60.51 256.111 60.51ZM186.651 89.15C187.794 89.15 188.646 89.3367 189.206 89.71C189.789 90.06 190.163 90.5617 190.326 91.215C190.513 91.8683 190.606 92.7667 190.606 93.91V106.3C190.606 106.557 190.536 106.732 190.396 106.825C190.279 106.895 189.894 106.942 189.241 106.965C188.611 106.988 187.771 107 186.721 107V94.015C186.721 93.455 186.651 93.07 186.511 92.86C186.371 92.65 186.091 92.545 185.671 92.545C185.181 92.545 184.738 92.65 184.341 92.86V106.3C184.341 106.557 184.283 106.732 184.166 106.825C184.073 106.895 183.711 106.942 183.081 106.965C182.474 106.988 181.634 107 180.561 107H180.526H180.456V93.875C180.456 93.2917 180.386 92.9183 180.246 92.755C180.129 92.5683 179.861 92.475 179.441 92.475C179.021 92.475 178.566 92.615 178.076 92.895V106.3C178.076 106.557 178.006 106.732 177.866 106.825C177.749 106.895 177.376 106.942 176.746 106.965C176.116 106.988 175.264 107 174.191 107V90.305C175.848 89.535 177.644 89.15 179.581 89.15C180.841 89.15 181.821 89.465 182.521 90.095C183.128 89.7917 183.793 89.5583 184.516 89.395C185.263 89.2317 185.974 89.15 186.651 89.15ZM196.53 107.35C195.526 107.35 194.663 107.222 193.94 106.965C193.24 106.708 192.668 106.183 192.225 105.39C191.781 104.573 191.56 103.407 191.56 101.89C191.56 99.6967 191.933 98.1917 192.68 97.375C193.426 96.535 194.406 96.115 195.62 96.115C195.97 96.115 196.355 96.1617 196.775 96.255C197.218 96.325 197.58 96.4533 197.86 96.64V94.225C197.86 93.7583 197.743 93.42 197.51 93.21C197.3 93 196.926 92.895 196.39 92.895C195.736 92.895 195.013 92.965 194.22 93.105C193.426 93.245 192.738 93.42 192.155 93.63C191.805 92.9533 191.63 92.2067 191.63 91.39C191.63 91.1567 191.676 90.9233 191.77 90.69C191.863 90.4567 191.98 90.2817 192.12 90.165C192.423 89.9317 193.053 89.71 194.01 89.5C194.966 89.2667 196.075 89.15 197.335 89.15C198.945 89.15 200.076 89.4767 200.73 90.13C201.406 90.76 201.745 91.8567 201.745 93.42V95.065C201.745 100.782 201.686 104.503 201.57 106.23C200.31 106.977 198.63 107.35 196.53 107.35ZM196.81 104.165C197.253 104.165 197.58 104.048 197.79 103.815C197.836 103.278 197.86 101.762 197.86 99.265C197.626 99.055 197.311 98.95 196.915 98.95C196.495 98.95 196.18 99.16 195.97 99.58C195.76 99.9767 195.655 100.712 195.655 101.785C195.655 102.648 195.736 103.267 195.9 103.64C196.063 103.99 196.366 104.165 196.81 104.165ZM202.44 113.895C201.11 113.895 200.177 113.72 199.64 113.37C199.08 113.043 198.8 112.518 198.8 111.795C198.8 110.978 198.975 110.348 199.325 109.905C200.002 110.208 200.842 110.36 201.845 110.36C202.475 110.36 202.883 110.173 203.07 109.8C203.28 109.45 203.385 108.762 203.385 107.735V91.215C203.385 90.6317 203.49 90.235 203.7 90.025C203.91 89.7917 204.248 89.6517 204.715 89.605C205.205 89.535 206.057 89.5 207.27 89.5V108.26C207.27 109.963 206.92 111.328 206.22 112.355C205.52 113.382 204.26 113.895 202.44 113.895ZM205.135 87.89C204.505 87.89 204.027 87.68 203.7 87.26C203.397 86.84 203.245 86.1167 203.245 85.09C203.245 84.25 203.42 83.585 203.77 83.095C204.143 82.605 204.68 82.36 205.38 82.36C206.08 82.36 206.558 82.5467 206.815 82.92C207.072 83.2933 207.2 83.9583 207.2 84.915C207.2 85.8483 207.025 86.5833 206.675 87.12C206.325 87.6333 205.812 87.89 205.135 87.89ZM213.938 107.35C212.562 107.35 211.488 107.128 210.718 106.685C209.948 106.218 209.365 105.332 208.968 104.025C208.595 102.718 208.408 100.782 208.408 98.215C208.408 92.1717 210.345 89.15 214.218 89.15C215.525 89.15 216.563 89.4183 217.333 89.955C218.127 90.4683 218.71 91.3667 219.083 92.65C219.48 93.9333 219.678 95.7417 219.678 98.075C219.678 101.365 219.2 103.733 218.243 105.18C217.31 106.627 215.875 107.35 213.938 107.35ZM214.043 104.13C214.323 104.13 214.557 104.002 214.743 103.745C214.93 103.465 215.082 102.893 215.198 102.03C215.338 101.143 215.408 99.86 215.408 98.18C215.408 96.4767 215.373 95.2283 215.303 94.435C215.233 93.6183 215.105 93.07 214.918 92.79C214.732 92.51 214.452 92.37 214.078 92.37C213.635 92.37 213.285 92.7667 213.028 93.56C212.795 94.3533 212.678 95.8933 212.678 98.18C212.678 99.93 212.725 101.237 212.818 102.1C212.935 102.94 213.087 103.488 213.273 103.745C213.46 104.002 213.717 104.13 214.043 104.13ZM220.774 90.725C222.361 89.675 223.982 89.15 225.639 89.15C226.549 89.15 227.167 89.29 227.494 89.57C227.821 89.8267 227.984 90.27 227.984 90.9C227.984 91.67 227.856 92.4167 227.599 93.14C227.226 92.9533 226.794 92.86 226.304 92.86C226.071 92.86 225.814 92.9067 225.534 93C225.254 93.0933 224.997 93.2333 224.764 93.42L224.729 106.3C224.729 106.557 224.671 106.732 224.554 106.825C224.437 106.895 224.052 106.942 223.399 106.965C222.769 106.988 221.894 107 220.774 107V90.725ZM175.486 123.72H173.386C173.386 122.6 173.398 121.842 173.421 121.445C173.444 121.048 173.514 120.792 173.631 120.675C173.771 120.558 174.004 120.5 174.331 120.5H175.486V118.505C175.486 116.055 176.058 114.387 177.201 113.5C178.344 112.613 179.803 112.17 181.576 112.17C182.696 112.17 183.559 112.322 184.166 112.625C184.773 112.928 185.076 113.383 185.076 113.99C185.076 114.69 184.948 115.39 184.691 116.09C184.061 115.787 183.268 115.635 182.311 115.635C181.354 115.635 180.619 115.81 180.106 116.16C179.616 116.51 179.371 117.152 179.371 118.085V120.5H181.926C181.926 121.55 181.903 122.285 181.856 122.705C181.833 123.125 181.774 123.405 181.681 123.545C181.588 123.662 181.424 123.72 181.191 123.72H179.371V137.3C179.371 137.417 179.324 137.568 179.231 137.755C179.161 137.918 178.974 138 178.671 138H175.486V123.72ZM187.813 134.57C188.933 134.57 190.169 134.243 191.523 133.59C191.733 134.29 191.838 135.153 191.838 136.18C191.838 136.857 191.359 137.393 190.403 137.79C189.469 138.163 188.291 138.35 186.868 138.35C185.118 138.35 183.776 137.755 182.843 136.565C181.909 135.352 181.443 133.193 181.443 130.09C181.443 127.43 181.711 125.365 182.248 123.895C182.808 122.425 183.531 121.433 184.418 120.92C185.304 120.407 186.366 120.15 187.603 120.15C190.589 120.15 192.083 122.052 192.083 125.855C192.083 127.885 191.919 129.542 191.593 130.825C190.263 131.105 188.233 131.268 185.503 131.315C185.573 132.505 185.771 133.345 186.098 133.835C186.424 134.325 186.996 134.57 187.813 134.57ZM187.113 123.51C186.576 123.51 186.179 123.895 185.923 124.665C185.689 125.435 185.549 126.637 185.503 128.27C186.809 128.27 187.684 128.165 188.128 127.955C188.244 127.605 188.303 126.998 188.303 126.135C188.303 125.062 188.221 124.362 188.058 124.035C187.894 123.685 187.579 123.51 187.113 123.51ZM205.653 120.15C206.796 120.15 207.648 120.337 208.208 120.71C208.791 121.06 209.165 121.562 209.328 122.215C209.515 122.868 209.608 123.767 209.608 124.91V137.3C209.608 137.557 209.538 137.732 209.398 137.825C209.281 137.895 208.896 137.942 208.243 137.965C207.613 137.988 206.773 138 205.723 138V125.015C205.723 124.455 205.653 124.07 205.513 123.86C205.373 123.65 205.093 123.545 204.673 123.545C204.183 123.545 203.74 123.65 203.343 123.86V137.3C203.343 137.557 203.285 137.732 203.168 137.825C203.075 137.895 202.713 137.942 202.083 137.965C201.476 137.988 200.636 138 199.563 138H199.528H199.458V124.875C199.458 124.292 199.388 123.918 199.248 123.755C199.131 123.568 198.863 123.475 198.443 123.475C198.023 123.475 197.568 123.615 197.078 123.895V137.3C197.078 137.557 197.008 137.732 196.868 137.825C196.751 137.895 196.378 137.942 195.748 137.965C195.118 137.988 194.266 138 193.193 138V121.305C194.85 120.535 196.646 120.15 198.583 120.15C199.843 120.15 200.823 120.465 201.523 121.095C202.13 120.792 202.795 120.558 203.518 120.395C204.265 120.232 204.976 120.15 205.653 120.15ZM211.7 122.215C211.7 121.632 211.805 121.235 212.015 121.025C212.225 120.792 212.575 120.652 213.065 120.605C213.555 120.535 214.419 120.5 215.655 120.5V137.3C215.655 137.557 215.597 137.732 215.48 137.825C215.364 137.895 214.979 137.942 214.325 137.965C213.672 137.988 212.797 138 211.7 138V122.215ZM213.59 118.89C212.96 118.89 212.482 118.68 212.155 118.26C211.852 117.84 211.7 117.117 211.7 116.09C211.7 115.25 211.875 114.585 212.225 114.095C212.599 113.605 213.135 113.36 213.835 113.36C214.535 113.36 215.014 113.547 215.27 113.92C215.527 114.293 215.655 114.958 215.655 115.915C215.655 116.848 215.48 117.583 215.13 118.12C214.78 118.633 214.267 118.89 213.59 118.89ZM217.903 121.305C218.51 121.025 219.35 120.768 220.423 120.535C221.52 120.278 222.488 120.15 223.328 120.15C225.148 120.15 226.443 120.477 227.213 121.13C227.983 121.783 228.368 122.962 228.368 124.665V137.3C228.368 137.557 228.298 137.732 228.158 137.825C228.041 137.895 227.645 137.942 226.968 137.965C226.315 137.988 225.44 138 224.343 138V125.89C224.343 124.933 224.261 124.292 224.098 123.965C223.958 123.638 223.655 123.475 223.188 123.475C222.675 123.475 222.208 123.615 221.788 123.895V137.3C221.788 137.557 221.718 137.732 221.578 137.825C221.461 137.895 221.088 137.942 220.458 137.965C219.828 137.988 218.976 138 217.903 138V121.305ZM230.497 122.215C230.497 121.632 230.602 121.235 230.812 121.025C231.022 120.792 231.372 120.652 231.862 120.605C232.352 120.535 233.216 120.5 234.452 120.5V137.3C234.452 137.557 234.394 137.732 234.277 137.825C234.161 137.895 233.776 137.942 233.122 137.965C232.469 137.988 231.594 138 230.497 138V122.215ZM232.387 118.89C231.757 118.89 231.279 118.68 230.952 118.26C230.649 117.84 230.497 117.117 230.497 116.09C230.497 115.25 230.672 114.585 231.022 114.095C231.396 113.605 231.932 113.36 232.632 113.36C233.332 113.36 233.811 113.547 234.067 113.92C234.324 114.293 234.452 114.958 234.452 115.915C234.452 116.848 234.277 117.583 233.927 118.12C233.577 118.633 233.064 118.89 232.387 118.89ZM239.656 138.35C236.903 138.35 235.526 137.662 235.526 136.285C235.526 135.608 235.736 134.885 236.156 134.115C237.113 134.628 238.14 134.885 239.236 134.885C239.843 134.885 240.298 134.757 240.601 134.5C240.905 134.22 241.056 133.847 241.056 133.38C241.056 132.68 240.788 132.027 240.251 131.42L237.206 128.2C236.623 127.593 236.191 126.963 235.911 126.31C235.631 125.657 235.491 125.05 235.491 124.49C235.491 123.16 235.946 122.11 236.856 121.34C237.766 120.547 239.236 120.15 241.266 120.15C242.993 120.15 244.136 120.372 244.696 120.815C245.28 121.235 245.571 121.748 245.571 122.355C245.571 122.658 245.501 122.985 245.361 123.335C245.245 123.662 245.07 123.953 244.836 124.21C243.926 123.72 242.911 123.475 241.791 123.475C240.671 123.475 240.111 123.837 240.111 124.56C240.111 124.793 240.181 125.038 240.321 125.295C240.461 125.552 240.741 125.89 241.161 126.31L243.751 128.935C244.428 129.728 244.883 130.44 245.116 131.07C245.373 131.677 245.501 132.423 245.501 133.31C245.501 134.873 244.976 136.11 243.926 137.02C242.876 137.907 241.453 138.35 239.656 138.35ZM251.323 138.35C250.32 138.35 249.561 138.163 249.048 137.79C248.535 137.417 248.185 136.88 247.998 136.18C247.811 135.48 247.718 134.558 247.718 133.415V123.79H245.583C245.583 122.717 245.595 121.97 245.618 121.55C245.641 121.13 245.7 120.85 245.793 120.71C245.91 120.57 246.108 120.5 246.388 120.5H247.718V115.425C247.718 115.005 247.823 114.713 248.033 114.55C248.243 114.387 248.581 114.293 249.048 114.27C249.538 114.223 250.39 114.2 251.603 114.2V120.5H254.473C254.473 121.597 254.461 122.355 254.438 122.775C254.415 123.172 254.345 123.44 254.228 123.58C254.135 123.72 253.96 123.79 253.703 123.79H251.603V133.345C251.603 133.905 251.65 134.337 251.743 134.64C251.836 134.92 252.07 135.06 252.443 135.06C253.026 135.06 253.633 134.908 254.263 134.605C254.426 135.375 254.508 135.993 254.508 136.46C254.508 137.72 253.446 138.35 251.323 138.35ZM180.106 166.57C181.226 166.57 182.463 166.243 183.816 165.59C184.026 166.29 184.131 167.153 184.131 168.18C184.131 168.857 183.653 169.393 182.696 169.79C181.763 170.163 180.584 170.35 179.161 170.35C177.411 170.35 176.069 169.755 175.136 168.565C174.203 167.352 173.736 165.193 173.736 162.09C173.736 159.43 174.004 157.365 174.541 155.895C175.101 154.425 175.824 153.433 176.711 152.92C177.598 152.407 178.659 152.15 179.896 152.15C182.883 152.15 184.376 154.052 184.376 157.855C184.376 159.885 184.213 161.542 183.886 162.825C182.556 163.105 180.526 163.268 177.796 163.315C177.866 164.505 178.064 165.345 178.391 165.835C178.718 166.325 179.289 166.57 180.106 166.57ZM179.406 155.51C178.869 155.51 178.473 155.895 178.216 156.665C177.983 157.435 177.843 158.637 177.796 160.27C179.103 160.27 179.978 160.165 180.421 159.955C180.538 159.605 180.596 158.998 180.596 158.135C180.596 157.062 180.514 156.362 180.351 156.035C180.188 155.685 179.873 155.51 179.406 155.51ZM189.301 170.175C188.485 170.175 187.948 169.592 187.691 168.425L184.681 153.655C184.635 153.375 184.611 153.2 184.611 153.13C184.611 152.92 184.716 152.78 184.926 152.71C185.136 152.617 185.591 152.558 186.291 152.535C186.991 152.512 187.866 152.5 188.916 152.5L189.581 157.575C189.745 158.835 189.896 160.398 190.036 162.265C190.176 164.132 190.258 165.357 190.281 165.94H190.351C190.375 165.357 190.456 164.132 190.596 162.265C190.736 160.375 190.888 158.8 191.051 157.54L191.541 153.27C191.588 152.99 191.67 152.803 191.786 152.71C191.926 152.617 192.23 152.558 192.696 152.535C193.186 152.512 194.166 152.5 195.636 152.5L192.136 170C191.46 170.117 190.515 170.175 189.301 170.175ZM201.671 166.57C202.791 166.57 204.028 166.243 205.381 165.59C205.591 166.29 205.696 167.153 205.696 168.18C205.696 168.857 205.218 169.393 204.261 169.79C203.328 170.163 202.15 170.35 200.726 170.35C198.976 170.35 197.635 169.755 196.701 168.565C195.768 167.352 195.301 165.193 195.301 162.09C195.301 159.43 195.57 157.365 196.106 155.895C196.666 154.425 197.39 153.433 198.276 152.92C199.163 152.407 200.225 152.15 201.461 152.15C204.448 152.15 205.941 154.052 205.941 157.855C205.941 159.885 205.778 161.542 205.451 162.825C204.121 163.105 202.091 163.268 199.361 163.315C199.431 164.505 199.63 165.345 199.956 165.835C200.283 166.325 200.855 166.57 201.671 166.57ZM200.971 155.51C200.435 155.51 200.038 155.895 199.781 156.665C199.548 157.435 199.408 158.637 199.361 160.27C200.668 160.27 201.543 160.165 201.986 159.955C202.103 159.605 202.161 158.998 202.161 158.135C202.161 157.062 202.08 156.362 201.916 156.035C201.753 155.685 201.438 155.51 200.971 155.51ZM207.052 153.305C207.659 153.025 208.499 152.768 209.572 152.535C210.669 152.278 211.637 152.15 212.477 152.15C214.297 152.15 215.592 152.477 216.362 153.13C217.132 153.783 217.517 154.962 217.517 156.665V169.3C217.517 169.557 217.447 169.732 217.307 169.825C217.19 169.895 216.794 169.942 216.117 169.965C215.464 169.988 214.589 170 213.492 170V157.89C213.492 156.933 213.41 156.292 213.247 155.965C213.107 155.638 212.804 155.475 212.337 155.475C211.824 155.475 211.357 155.615 210.937 155.895V169.3C210.937 169.557 210.867 169.732 210.727 169.825C210.61 169.895 210.237 169.942 209.607 169.965C208.977 169.988 208.125 170 207.052 170V153.305ZM223.863 170.35C222.859 170.35 222.101 170.163 221.588 169.79C221.074 169.417 220.724 168.88 220.538 168.18C220.351 167.48 220.258 166.558 220.258 165.415V155.79H218.123C218.123 154.717 218.134 153.97 218.158 153.55C218.181 153.13 218.239 152.85 218.333 152.71C218.449 152.57 218.648 152.5 218.928 152.5H220.258V147.425C220.258 147.005 220.363 146.713 220.573 146.55C220.783 146.387 221.121 146.293 221.588 146.27C222.078 146.223 222.929 146.2 224.143 146.2V152.5H227.013C227.013 153.597 227.001 154.355 226.978 154.775C226.954 155.172 226.884 155.44 226.768 155.58C226.674 155.72 226.499 155.79 226.243 155.79H224.143V165.345C224.143 165.905 224.189 166.337 224.283 166.64C224.376 166.92 224.609 167.06 224.983 167.06C225.566 167.06 226.173 166.908 226.803 166.605C226.966 167.375 227.048 167.993 227.048 168.46C227.048 169.72 225.986 170.35 223.863 170.35ZM231.779 170.35C229.026 170.35 227.649 169.662 227.649 168.285C227.649 167.608 227.859 166.885 228.279 166.115C229.236 166.628 230.262 166.885 231.359 166.885C231.966 166.885 232.421 166.757 232.724 166.5C233.027 166.22 233.179 165.847 233.179 165.38C233.179 164.68 232.911 164.027 232.374 163.42L229.329 160.2C228.746 159.593 228.314 158.963 228.034 158.31C227.754 157.657 227.614 157.05 227.614 156.49C227.614 155.16 228.069 154.11 228.979 153.34C229.889 152.547 231.359 152.15 233.389 152.15C235.116 152.15 236.259 152.372 236.819 152.815C237.402 153.235 237.694 153.748 237.694 154.355C237.694 154.658 237.624 154.985 237.484 155.335C237.367 155.662 237.192 155.953 236.959 156.21C236.049 155.72 235.034 155.475 233.914 155.475C232.794 155.475 232.234 155.837 232.234 156.56C232.234 156.793 232.304 157.038 232.444 157.295C232.584 157.552 232.864 157.89 233.284 158.31L235.874 160.935C236.551 161.728 237.006 162.44 237.239 163.07C237.496 163.677 237.624 164.423 237.624 165.31C237.624 166.873 237.099 168.11 236.049 169.02C234.999 169.907 233.576 170.35 231.779 170.35Z" fill="#E5E5E5"/>
<path d="M40 0V160.751C40 160.751 61.875 186 68 186C74.125 186 96 160.751 96 160.751V0H40Z" fill="url(#paint0_linear_266_1601)"/>
<path d="M51.5449 13.9399L48.7983 15.4927L48.4028 14.3135L51.5449 12.6289H52.8999V23H51.5449V13.9399ZM56.005 22.3994C55.6534 22.1455 55.3726 21.8281 55.1627 21.4473C54.9576 21.0615 54.8551 20.6685 54.8551 20.2681C54.8551 19.8628 54.9039 19.5308 55.0015 19.272C55.1041 19.0083 55.2384 18.7666 55.4044 18.5469C55.7559 18.0928 56.1929 17.7754 56.7154 17.5947V17.5508C56.2857 17.4287 55.922 17.165 55.6241 16.7598C55.3116 16.3398 55.1554 15.8882 55.1554 15.4048C55.1554 14.9165 55.2603 14.4966 55.4703 14.145C55.6803 13.7886 55.9561 13.4883 56.2979 13.2441C57.0059 12.7363 57.8555 12.4824 58.8468 12.4824C59.8526 12.4824 60.6876 12.7168 61.3516 13.1855C62.0596 13.6934 62.4137 14.3721 62.4137 15.2217C62.4137 16.0029 62.0938 16.6377 61.4542 17.126C61.2393 17.2871 60.9903 17.4165 60.7071 17.5142V17.5508C61.6837 17.8242 62.3184 18.3638 62.6114 19.1694C62.7042 19.4331 62.7506 19.7261 62.7506 20.0483C62.7506 20.3657 62.6969 20.666 62.5894 20.9492C62.482 21.2324 62.3331 21.4912 62.1427 21.7256C61.9571 21.9551 61.7349 22.1577 61.4762 22.3335C61.2222 22.5093 60.9464 22.6582 60.6485 22.7803C60.0528 23.0244 59.4522 23.1465 58.8468 23.1465C58.2413 23.1465 57.7042 23.0854 57.2354 22.9634C56.7716 22.8364 56.3614 22.6484 56.005 22.3994ZM57.2135 16.6572C57.4137 16.8037 57.6529 16.9111 57.9312 16.9795C58.2096 17.0479 58.4928 17.082 58.7808 17.082C59.0738 17.082 59.3472 17.0405 59.6012 16.9575C59.8551 16.8696 60.0846 16.7476 60.2896 16.5913C60.7486 16.2397 60.9781 15.8125 60.9781 15.3096C60.9781 14.792 60.7559 14.3892 60.3116 14.1011C59.9112 13.8423 59.379 13.7129 58.7149 13.7129C57.797 13.7129 57.15 13.9937 56.774 14.5552C56.6471 14.7456 56.5836 14.9873 56.5836 15.2803C56.5836 15.5732 56.6373 15.8394 56.7447 16.0786C56.857 16.313 57.0133 16.5059 57.2135 16.6572ZM56.4957 19.228C56.3443 19.4478 56.2686 19.7163 56.2686 20.0337C56.2686 20.3462 56.3394 20.6196 56.481 20.854C56.6226 21.0884 56.8106 21.2861 57.045 21.4473C57.5186 21.7598 58.1192 21.916 58.8468 21.916C59.9454 21.916 60.6925 21.5815 61.088 20.9126C61.2198 20.6831 61.2857 20.4121 61.2857 20.0996C61.2857 19.7822 61.21 19.5112 61.0587 19.2866C60.9073 19.0571 60.7096 18.8691 60.4654 18.7227C59.9869 18.4346 59.4034 18.2905 58.7149 18.2905C57.6651 18.2905 56.9254 18.603 56.4957 19.228ZM64.3542 17.9023C64.3542 17.1211 64.4713 16.396 64.7057 15.7271C64.945 15.0581 65.2868 14.4844 65.7311 14.0059C66.6735 12.9902 67.9308 12.4824 69.5031 12.4824C71.0216 12.4824 72.2399 12.9707 73.1579 13.9473C74.0661 14.9092 74.5202 16.1616 74.5202 17.7046C74.5202 19.3306 74.0612 20.6367 73.1432 21.623C72.2008 22.6387 70.9435 23.1465 69.3713 23.1465C67.8527 23.1465 66.632 22.6582 65.7091 21.6816C64.8058 20.7295 64.3542 19.4697 64.3542 17.9023ZM65.7897 17.7192C65.7897 18.3052 65.8703 18.8545 66.0314 19.3672C66.1974 19.8799 66.4391 20.3267 66.7565 20.7075C67.4352 21.5229 68.3507 21.9307 69.5031 21.9307C70.6261 21.9307 71.5099 21.5498 72.1545 20.7881C72.7746 20.0557 73.0846 19.1011 73.0846 17.9243C73.0846 16.6938 72.7624 15.6929 72.1178 14.9214C71.4391 14.106 70.5236 13.6982 69.3713 13.6982C68.2531 13.6982 67.3693 14.0791 66.7199 14.8408C66.0998 15.5635 65.7897 16.5229 65.7897 17.7192ZM76.197 17.9023C76.197 17.1211 76.3142 16.396 76.5486 15.7271C76.7878 15.0581 77.1296 14.4844 77.574 14.0059C78.5163 12.9902 79.7737 12.4824 81.3459 12.4824C82.8645 12.4824 84.0828 12.9707 85.0007 13.9473C85.9089 14.9092 86.363 16.1616 86.363 17.7046C86.363 19.3306 85.904 20.6367 84.9861 21.623C84.0437 22.6387 82.7864 23.1465 81.2141 23.1465C79.6955 23.1465 78.4748 22.6582 77.552 21.6816C76.6487 20.7295 76.197 19.4697 76.197 17.9023ZM77.6326 17.7192C77.6326 18.3052 77.7131 18.8545 77.8743 19.3672C78.0403 19.8799 78.282 20.3267 78.5994 20.7075C79.2781 21.5229 80.1936 21.9307 81.3459 21.9307C82.469 21.9307 83.3528 21.5498 83.9973 20.7881C84.6174 20.0557 84.9275 19.1011 84.9275 17.9243C84.9275 16.6938 84.6052 15.6929 83.9607 14.9214C83.282 14.106 82.3664 13.6982 81.2141 13.6982C80.0959 13.6982 79.2121 14.0791 78.5627 14.8408C77.9426 15.5635 77.6326 16.5229 77.6326 17.7192Z" fill="black"/>
<path d="M51.5449 83.9399L48.7983 85.4927L48.4028 84.3135L51.5449 82.6289H52.8999V93H51.5449V83.9399ZM61.9083 88.3345C60.9415 88.8862 59.8624 89.1621 58.671 89.1621C57.6065 89.1621 56.7398 88.9082 56.0709 88.4004C55.3482 87.8633 54.9869 87.104 54.9869 86.1226C54.9869 85.0483 55.3922 84.167 56.2027 83.4785C56.9888 82.8145 57.9483 82.4824 59.0811 82.4824C60.4337 82.4824 61.5006 82.8975 62.2818 83.7275C63.0533 84.5479 63.439 85.6489 63.439 87.0308C63.439 89.897 62.4893 91.7744 60.5899 92.6631C59.8331 93.0195 58.9737 93.1807 58.0118 93.1465C57.1524 93.1123 56.3248 92.9219 55.5289 92.5752L55.8804 91.4106C57.3892 92.0161 58.6734 92.1113 59.733 91.6963C60.9195 91.2275 61.6446 90.1069 61.9083 88.3345ZM62.0035 86.8477C62.0035 85.9053 61.7301 85.146 61.1832 84.5698C60.6265 83.9888 59.8819 83.6982 58.9493 83.6982C58.2315 83.6982 57.6383 83.8936 57.1695 84.2842C56.6715 84.6992 56.4224 85.2388 56.4224 85.9028C56.4224 86.5327 56.6568 87.0332 57.1256 87.4043C57.5699 87.7559 58.129 87.9316 58.8028 87.9316C59.7208 87.9316 60.5826 87.7314 61.3883 87.3311C61.6275 87.2139 61.8326 87.0942 62.0035 86.9722V86.8477ZM64.984 87.9023C64.984 87.1211 65.1012 86.396 65.3356 85.7271C65.5749 85.0581 65.9167 84.4844 66.361 84.0059C67.3034 82.9902 68.5607 82.4824 70.133 82.4824C71.6515 82.4824 72.8698 82.9707 73.7878 83.9473C74.696 84.9092 75.1501 86.1616 75.1501 87.7046C75.1501 89.3306 74.6911 90.6367 73.7731 91.623C72.8307 92.6387 71.5734 93.1465 70.0011 93.1465C68.4826 93.1465 67.2619 92.6582 66.339 91.6816C65.4357 90.7295 64.984 89.4697 64.984 87.9023ZM66.4196 87.7192C66.4196 88.3052 66.5002 88.8545 66.6613 89.3672C66.8273 89.8799 67.069 90.3267 67.3864 90.7075C68.0651 91.5229 68.9806 91.9307 70.133 91.9307C71.256 91.9307 72.1398 91.5498 72.7843 90.7881C73.4045 90.0557 73.7145 89.1011 73.7145 87.9243C73.7145 86.6938 73.3922 85.6929 72.7477 84.9214C72.069 84.106 71.1535 83.6982 70.0011 83.6982C68.883 83.6982 67.9992 84.0791 67.3498 84.8408C66.7296 85.5635 66.4196 86.5229 66.4196 87.7192ZM76.8269 87.9023C76.8269 87.1211 76.9441 86.396 77.1785 85.7271C77.4177 85.0581 77.7595 84.4844 78.2038 84.0059C79.1462 82.9902 80.4036 82.4824 81.9758 82.4824C83.4944 82.4824 84.7126 82.9707 85.6306 83.9473C86.5388 84.9092 86.9929 86.1616 86.9929 87.7046C86.9929 89.3306 86.5339 90.6367 85.616 91.623C84.6736 92.6387 83.4163 93.1465 81.844 93.1465C80.3254 93.1465 79.1047 92.6582 78.1819 91.6816C77.2786 90.7295 76.8269 89.4697 76.8269 87.9023ZM78.2624 87.7192C78.2624 88.3052 78.343 88.8545 78.5041 89.3672C78.6702 89.8799 78.9119 90.3267 79.2292 90.7075C79.9079 91.5229 80.8235 91.9307 81.9758 91.9307C83.0989 91.9307 83.9827 91.5498 84.6272 90.7881C85.2473 90.0557 85.5574 89.1011 85.5574 87.9243C85.5574 86.6938 85.2351 85.6929 84.5906 84.9214C83.9119 84.106 82.9963 83.6982 81.844 83.6982C80.7258 83.6982 79.842 84.0791 79.1926 84.8408C78.5725 85.5635 78.2624 86.5229 78.2624 87.7192Z" fill="black"/>
<path d="M46.084 158.77L48.8306 156.396C50.6177 154.839 51.5112 153.594 51.5112 152.661C51.5112 151.982 51.3281 151.489 50.9619 151.182C50.6006 150.869 50.0415 150.713 49.2847 150.713C48.6694 150.713 47.9297 150.884 47.0654 151.226C46.8506 151.309 46.6821 151.382 46.5601 151.445L46.1865 150.281C46.8457 149.944 47.666 149.702 48.6475 149.556C48.96 149.507 49.3091 149.482 49.6948 149.482C50.0806 149.482 50.4834 149.553 50.9033 149.695C51.3281 149.836 51.6919 150.039 51.9946 150.303C52.6294 150.854 52.9468 151.611 52.9468 152.573C52.9468 153.887 52.0215 155.322 50.1709 156.88L47.9883 158.718L53.2178 158.711V160H46.084V158.77ZM54.8287 154.902C54.8287 154.121 54.9459 153.396 55.1803 152.727C55.4195 152.058 55.7613 151.484 56.2056 151.006C57.148 149.99 58.4054 149.482 59.9776 149.482C61.4962 149.482 62.7144 149.971 63.6324 150.947C64.5406 151.909 64.9947 153.162 64.9947 154.705C64.9947 156.331 64.5357 157.637 63.6178 158.623C62.6754 159.639 61.418 160.146 59.8458 160.146C58.3272 160.146 57.1065 159.658 56.1837 158.682C55.2804 157.729 54.8287 156.47 54.8287 154.902ZM56.2642 154.719C56.2642 155.305 56.3448 155.854 56.5059 156.367C56.672 156.88 56.9137 157.327 57.231 157.708C57.9097 158.523 58.8253 158.931 59.9776 158.931C61.1007 158.931 61.9845 158.55 62.629 157.788C63.2491 157.056 63.5592 156.101 63.5592 154.924C63.5592 153.694 63.2369 152.693 62.5924 151.921C61.9137 151.106 60.9981 150.698 59.8458 150.698C58.7276 150.698 57.8438 151.079 57.1944 151.841C56.5743 152.563 56.2642 153.523 56.2642 154.719ZM66.6715 154.902C66.6715 154.121 66.7887 153.396 67.0231 152.727C67.2624 152.058 67.6042 151.484 68.0485 151.006C68.9909 149.99 70.2482 149.482 71.8205 149.482C73.339 149.482 74.5573 149.971 75.4753 150.947C76.3835 151.909 76.8376 153.162 76.8376 154.705C76.8376 156.331 76.3786 157.637 75.4606 158.623C74.5182 159.639 73.2609 160.146 71.6886 160.146C70.1701 160.146 68.9494 159.658 68.0265 158.682C67.1232 157.729 66.6715 156.47 66.6715 154.902ZM68.1071 154.719C68.1071 155.305 68.1877 155.854 68.3488 156.367C68.5148 156.88 68.7565 157.327 69.0739 157.708C69.7526 158.523 70.6681 158.931 71.8205 158.931C72.9435 158.931 73.8273 158.55 74.4718 157.788C75.092 157.056 75.402 156.101 75.402 154.924C75.402 153.694 75.0797 152.693 74.4352 151.921C73.7565 151.106 72.841 150.698 71.6886 150.698C70.5705 150.698 69.6867 151.079 69.0373 151.841C68.4171 152.563 68.1071 153.523 68.1071 154.719ZM78.5144 154.902C78.5144 154.121 78.6316 153.396 78.866 152.727C79.1052 152.058 79.447 151.484 79.8913 151.006C80.8337 149.99 82.0911 149.482 83.6633 149.482C85.1819 149.482 86.4001 149.971 87.3181 150.947C88.2263 151.909 88.6804 153.162 88.6804 154.705C88.6804 156.331 88.2214 157.637 87.3035 158.623C86.3611 159.639 85.1037 160.146 83.5315 160.146C82.0129 160.146 80.7922 159.658 79.8694 158.682C78.9661 157.729 78.5144 156.47 78.5144 154.902ZM79.9499 154.719C79.9499 155.305 80.0305 155.854 80.1916 156.367C80.3577 156.88 80.5994 157.327 80.9167 157.708C81.5954 158.523 82.511 158.931 83.6633 158.931C84.7864 158.931 85.6702 158.55 86.3147 157.788C86.9348 157.056 87.2449 156.101 87.2449 154.924C87.2449 153.694 86.9226 152.693 86.2781 151.921C85.5994 151.106 84.6838 150.698 83.5315 150.698C82.4133 150.698 81.5295 151.079 80.8801 151.841C80.26 152.563 79.9499 153.523 79.9499 154.719Z" fill="black"/>
<path d="M303.159 170.012H304.473L306.809 175.172C306.914 175.409 307.012 175.644 307.101 175.877C307.304 176.397 307.46 176.823 307.57 177.153H307.627C307.687 176.962 307.752 176.77 307.824 176.575L308.053 175.953C308.142 175.725 308.241 175.492 308.351 175.255L310.725 170.012H311.969L307.843 179.127H307.285L303.159 170.012ZM312.61 175.883C312.61 175.401 312.705 174.954 312.896 174.544C313.086 174.133 313.344 173.778 313.67 173.478C314.36 172.843 315.189 172.525 316.158 172.525C317.136 172.525 317.95 172.828 318.602 173.433C319.262 174.047 319.592 174.836 319.592 175.801C319.592 176.744 319.239 177.538 318.532 178.181C317.847 178.812 317.017 179.127 316.044 179.127C315.054 179.127 314.237 178.826 313.594 178.226C312.938 177.616 312.61 176.835 312.61 175.883ZM313.816 175.813C313.816 176.144 313.875 176.45 313.994 176.734C314.112 177.013 314.275 177.257 314.483 177.464C314.923 177.896 315.481 178.111 316.158 178.111C316.789 178.111 317.318 177.896 317.745 177.464C318.173 177.041 318.386 176.51 318.386 175.871C318.386 175.202 318.164 174.646 317.72 174.201C317.28 173.761 316.721 173.541 316.044 173.541C315.414 173.541 314.885 173.759 314.457 174.195C314.03 174.626 313.816 175.166 313.816 175.813ZM322.468 170.043C322.468 170.28 322.396 170.471 322.252 170.615C322.108 170.759 321.917 170.831 321.68 170.831C321.443 170.831 321.253 170.759 321.109 170.615C320.965 170.471 320.893 170.28 320.893 170.043C320.893 169.806 320.965 169.618 321.109 169.479C321.253 169.335 321.443 169.263 321.68 169.263C321.917 169.263 322.108 169.335 322.252 169.479C322.396 169.618 322.468 169.806 322.468 170.043ZM321.077 172.652H322.283V179H321.077V172.652ZM327.977 173.979C327.719 173.827 327.454 173.75 327.184 173.75C326.917 173.75 326.695 173.818 326.517 173.954C326.343 174.089 326.191 174.26 326.06 174.468C325.802 174.866 325.628 175.331 325.539 175.864V179H324.333V172.652H325.33L325.533 173.814C325.859 173.217 326.276 172.822 326.784 172.627C326.966 172.559 327.131 172.525 327.279 172.525C327.431 172.525 327.543 172.53 327.615 172.538C327.687 172.542 327.757 172.551 327.825 172.563C327.96 172.597 328.102 172.648 328.25 172.716L327.977 173.979ZM335.517 179.127C335.001 179.127 334.519 179.08 334.07 178.987V181.964H332.864V172.652H333.784L333.962 173.262C334.563 172.771 335.285 172.525 336.127 172.525C337.041 172.525 337.775 172.813 338.329 173.389C338.875 173.96 339.148 174.709 339.148 175.636C339.148 176.673 338.801 177.517 338.107 178.168C337.43 178.807 336.567 179.127 335.517 179.127ZM334.07 177.902C334.667 178.042 335.166 178.111 335.568 178.111C335.97 178.111 336.315 178.056 336.603 177.946C336.89 177.832 337.134 177.671 337.333 177.464C337.739 177.041 337.942 176.457 337.942 175.712C337.942 175.086 337.777 174.574 337.447 174.176C337.096 173.753 336.628 173.541 336.044 173.541C335.376 173.541 334.827 173.706 334.4 174.036C334.265 174.146 334.155 174.271 334.07 174.411V177.902ZM340.639 169.091H341.846V176.829C341.846 177.261 341.875 177.549 341.934 177.692C342.053 177.967 342.256 178.143 342.544 178.219L342.366 179C341.71 179.085 341.242 178.911 340.963 178.479C340.747 178.141 340.639 177.62 340.639 176.918V169.091ZM348.663 178.384C348.079 178.879 347.372 179.127 346.542 179.127C345.527 179.127 344.801 178.858 344.365 178.321C343.955 177.821 343.749 177.03 343.749 175.947V172.652H344.956V175.871C344.956 176.607 345.066 177.149 345.286 177.496C345.544 177.906 345.99 178.111 346.625 178.111C347.272 178.111 347.808 177.934 348.231 177.578C348.362 177.468 348.472 177.347 348.561 177.216V172.652H349.767V179H348.847L348.663 178.384ZM351.569 177.445C352.069 177.788 352.64 178.012 353.283 178.118C353.486 178.152 353.677 178.168 353.855 178.168C354.032 178.168 354.199 178.152 354.356 178.118C354.513 178.084 354.654 178.029 354.781 177.953C355.052 177.788 355.188 177.551 355.188 177.242C355.188 176.971 354.989 176.744 354.591 176.562C354.413 176.482 354.21 176.406 353.982 176.334L353.283 176.105C352.687 175.902 352.274 175.712 352.045 175.534C351.821 175.356 351.654 175.172 351.544 174.982C351.438 174.792 351.385 174.557 351.385 174.277C351.385 173.994 351.451 173.742 351.582 173.522C351.718 173.298 351.897 173.111 352.122 172.963C352.562 172.671 353.072 172.525 353.651 172.525C354.692 172.525 355.53 172.752 356.165 173.205L355.695 174.087C355.044 173.685 354.377 173.484 353.696 173.484C353.218 173.484 352.881 173.621 352.687 173.896C352.623 173.99 352.591 174.106 352.591 174.246C352.591 174.385 352.644 174.506 352.75 174.607C352.86 174.709 353.004 174.8 353.182 174.88C353.359 174.957 353.563 175.031 353.791 175.103L354.489 175.318C355.082 175.517 355.492 175.708 355.721 175.89C356.165 176.245 356.387 176.668 356.387 177.159C356.387 177.798 356.119 178.295 355.581 178.651C355.103 178.968 354.496 179.127 353.759 179.127C352.989 179.127 352.293 178.975 351.671 178.67C351.464 178.573 351.28 178.456 351.119 178.321L351.569 177.445ZM361.852 179.083C361.615 179.083 361.425 179.011 361.281 178.867C361.137 178.723 361.065 178.532 361.065 178.295C361.065 178.058 361.137 177.87 361.281 177.73C361.425 177.587 361.615 177.515 361.852 177.515C362.089 177.515 362.279 177.587 362.423 177.73C362.567 177.87 362.639 178.058 362.639 178.295C362.639 178.532 362.567 178.723 362.423 178.867C362.279 179.011 362.089 179.083 361.852 179.083ZM364.917 179.083C364.68 179.083 364.49 179.011 364.346 178.867C364.202 178.723 364.13 178.532 364.13 178.295C364.13 178.058 364.202 177.87 364.346 177.73C364.49 177.587 364.68 177.515 364.917 177.515C365.154 177.515 365.345 177.587 365.489 177.73C365.633 177.87 365.705 178.058 365.705 178.295C365.705 178.532 365.633 178.723 365.489 178.867C365.345 179.011 365.154 179.083 364.917 179.083ZM367.983 179.083C367.746 179.083 367.556 179.011 367.412 178.867C367.268 178.723 367.196 178.532 367.196 178.295C367.196 178.058 367.268 177.87 367.412 177.73C367.556 177.587 367.746 177.515 367.983 177.515C368.22 177.515 368.41 177.587 368.554 177.73C368.698 177.87 368.77 178.058 368.77 178.295C368.77 178.532 368.698 178.723 368.554 178.867C368.41 179.011 368.22 179.083 367.983 179.083Z" fill="#E5E5E5"/>
<path d="M303 180.301H369.538V180.949H303V180.301Z" fill="#E5E5E5"/>
<path d="M99.4362 41.4215C98.6454 40.6388 98.6454 39.3612 99.4362 38.5785L115.593 22.5874C116.856 21.3374 119 22.232 119 24.0088L119 55.9912C119 57.768 116.856 58.6626 115.593 57.4126L99.4362 41.4215Z" fill="#333333"/>
<path d="M99.4362 126.421C98.6454 125.639 98.6454 124.361 99.4362 123.579L115.593 107.587C116.856 106.337 119 107.232 119 109.009L119 140.991C119 142.768 116.856 143.663 115.593 142.413L99.4362 126.421Z" fill="#333333"/>
<defs>
<linearGradient id="paint0_linear_266_1601" x1="68" y1="0" x2="68" y2="186" gradientUnits="userSpaceOnUse">
<stop stop-color="#7D7D7D"/>
<stop offset="0.270833" stop-color="#7D7D7D" stop-opacity="0.765625"/>
<stop offset="1" stop-color="#5B1E77"/>
</linearGradient>
</defs>
</svg>
